<?xml version="1.0" encoding="UTF-8" standalone="no"?><!DOCTYPE svg PUBLIC "-//W3C//DTD SVG 1.1//EN" "http://www.w3.org/Graphics/SVG/1.1/DTD/svg11.dtd"><svg width="100%" height="100%" viewBox="0 0 3779 1963" version="1.1" xmlns="http://www.w3.org/2000/svg" xmlns:xlink="http://www.w3.org/1999/xlink" xml:space="preserve" xmlns:serif="http://www.serif.com/" style="fill-rule:evenodd;clip-rule:evenodd;stroke-linecap:round;stroke-linejoin:round;stroke-miterlimit:1.5;"><g><g><path d="M1334.72,729.029l0,345.711c0,95.402 -77.454,172.856 -172.856,172.856l-898.032,0c-95.401,0 -172.855,-77.454 -172.855,-172.856l-0,-345.711c-0,-95.402 77.454,-172.856 172.855,-172.856l898.032,-0c95.402,-0 172.856,77.454 172.856,172.856Z" style="fill:#2563eb;stroke:#000;stroke-width:1.67px;"/><g transform="matrix(3.15211,0,0,3.15211,-1462.97,-952.778)"><g transform="matrix(50,0,0,50,571.847,545.238)"><path d="M0.529,-0.091c-0.035,0.017 -0.089,0.028 -0.142,0.028c-0.164,0 -0.259,-0.106 -0.259,-0.271c0,-0.177 0.105,-0.278 0.263,-0.278c0.056,0 0.103,0.012 0.136,0.028l0.021,-0.071c-0.023,-0.012 -0.076,-0.03 -0.16,-0.03c-0.209,0 -0.352,0.143 -0.352,0.354c-0,0.221 0.143,0.342 0.333,0.342c0.082,0 0.146,-0.017 0.178,-0.033l-0.018,-0.069Z" style="fill:#fff;fill-rule:nonzero;"/></g><g transform="matrix(50,0,0,50,600.297,545.238)"><path d="M0.278,-0.495c-0.134,0 -0.24,0.095 -0.24,0.257c-0,0.153 0.101,0.249 0.232,0.249c0.117,-0 0.241,-0.078 0.241,-0.257c0,-0.148 -0.094,-0.249 -0.233,-0.249Zm-0.002,0.066c0.104,0 0.145,0.104 0.145,0.186c-0,0.109 -0.063,0.188 -0.147,0.188c-0.086,-0 -0.147,-0.08 -0.147,-0.186c-0,-0.092 0.045,-0.188 0.149,-0.188Z" style="fill:#fff;fill-rule:nonzero;"/></g><g transform="matrix(50,0,0,50,627.747,545.238)"><path d="M0.073,0.198l0.087,0l0,-0.263l0.002,0c0.029,0.048 0.085,0.076 0.149,0.076c0.114,0 0.22,-0.086 0.22,-0.26c0,-0.147 -0.088,-0.246 -0.205,-0.246c-0.079,0 -0.136,0.035 -0.172,0.094l-0.002,0l-0.004,-0.083l-0.079,0c0.002,0.046 0.004,0.096 0.004,0.158l0,0.524Zm0.087,-0.478c0,-0.012 0.003,-0.025 0.006,-0.036c0.017,-0.066 0.073,-0.109 0.133,-0.109c0.093,0 0.144,0.083 0.144,0.18c-0,0.111 -0.054,0.187 -0.147,0.187c-0.063,0 -0.116,-0.042 -0.132,-0.103c-0.002,-0.011 -0.004,-0.023 -0.004,-0.036l-0,-0.083Z" style="fill:#fff;fill-rule:nonzero;"/></g><g transform="matrix(50,0,0,50,656.197,545.238)"><path d="M0.462,-0.226c0.001,-0.009 0.003,-0.023 0.003,-0.041c0,-0.089 -0.042,-0.228 -0.2,-0.228c-0.141,0 -0.227,0.115 -0.227,0.261c-0,0.146 0.089,0.245 0.238,0.245c0.077,-0 0.13,-0.017 0.161,-0.031l-0.015,-0.063c-0.033,0.014 -0.071,0.025 -0.134,0.025c-0.088,-0 -0.164,-0.049 -0.166,-0.168l0.34,0Zm-0.339,-0.063c0.007,-0.061 0.046,-0.143 0.135,-0.143c0.099,0 0.123,0.087 0.122,0.143l-0.257,0Z" style="fill:#fff;fill-rule:nonzero;"/></g><g transform="matrix(50,0,0,50,681.247,545.238)"><path d="M0.073,-0l0.087,-0l0,-0.258c0,-0.015 0.002,-0.029 0.004,-0.041c0.012,-0.066 0.056,-0.113 0.118,-0.113c0.012,-0 0.021,0.001 0.03,0.003l-0,-0.083c-0.008,-0.002 -0.015,-0.003 -0.025,-0.003c-0.059,0 -0.112,0.041 -0.134,0.106l-0.004,0l-0.003,-0.095l-0.077,0c0.003,0.045 0.004,0.094 0.004,0.151l-0,0.333Z" style="fill:#fff;fill-rule:nonzero;"/></g><g transform="matrix(50,0,0,50,697.797,545.238)"><path d="M0.073,-0l0.088,-0l0,-0.291c0,-0.015 0.002,-0.03 0.006,-0.041c0.015,-0.049 0.06,-0.09 0.118,-0.09c0.083,-0 0.112,0.065 0.112,0.143l0,0.279l0.088,-0l0,-0.289c0,-0.166 -0.104,-0.206 -0.171,-0.206c-0.08,-0 -0.136,0.045 -0.16,0.091l-0.002,-0l-0.005,-0.08l-0.078,-0c0.003,0.04 0.004,0.081 0.004,0.131l0,0.353Z" style="fill:#fff;fill-rule:nonzero;"/></g><g transform="matrix(50,0,0,50,725.547,545.238)"><path d="M0.161,-0l0,-0.484l-0.088,0l-0,0.484l0.088,-0Zm-0.044,-0.675c-0.032,0 -0.055,0.024 -0.055,0.055c-0,0.03 0.022,0.054 0.053,0.054c0.035,-0 0.057,-0.024 0.056,-0.054c0,-0.031 -0.021,-0.055 -0.054,-0.055Z" style="fill:#fff;fill-rule:nonzero;"/></g><g transform="matrix(50,0,0,50,737.247,545.238)"><path d="M0.403,-0.084c-0.025,0.011 -0.058,0.024 -0.108,0.024c-0.096,0 -0.168,-0.069 -0.168,-0.181c-0,-0.101 0.06,-0.183 0.171,-0.183c0.048,0 0.081,0.011 0.102,0.023l0.02,-0.068c-0.024,-0.012 -0.07,-0.025 -0.122,-0.025c-0.158,0 -0.26,0.108 -0.26,0.257c-0,0.148 0.095,0.248 0.241,0.248c0.065,-0 0.116,-0.017 0.139,-0.029l-0.015,-0.066Z" style="fill:#fff;fill-rule:nonzero;"/></g><g transform="matrix(50,0,0,50,759.647,545.238)"><path d="M0.478,-0.484l-0.088,0l0,0.297c0,0.016 -0.003,0.032 -0.008,0.045c-0.016,0.039 -0.057,0.08 -0.116,0.08c-0.08,0 -0.108,-0.062 -0.108,-0.154l-0,-0.268l-0.088,0l-0,0.283c-0,0.17 0.091,0.212 0.167,0.212c0.086,0 0.137,-0.051 0.16,-0.09l0.002,0l0.005,0.079l0.078,0c-0.003,-0.038 -0.004,-0.082 -0.004,-0.132l0,-0.352Z" style="fill:#fff;fill-rule:nonzero;"/></g><g transform="matrix(50,0,0,50,787.197,545.238)"><path d="M0.039,-0.023c0.034,0.02 0.083,0.034 0.136,0.034c0.115,-0 0.181,-0.061 0.181,-0.146c0,-0.072 -0.043,-0.114 -0.127,-0.146c-0.063,-0.024 -0.092,-0.042 -0.092,-0.082c0,-0.036 0.029,-0.066 0.081,-0.066c0.045,0 0.08,0.016 0.099,0.028l0.022,-0.064c-0.027,-0.016 -0.07,-0.03 -0.119,-0.03c-0.104,0 -0.167,0.064 -0.167,0.142c0,0.058 0.041,0.106 0.128,0.137c0.065,0.024 0.09,0.047 0.09,0.089c0,0.04 -0.03,0.072 -0.094,0.072c-0.044,-0 -0.09,-0.018 -0.116,-0.035l-0.022,0.067Z" style="fill:#fff;fill-rule:nonzero;"/></g><g transform="matrix(50,0,0,50,522.897,605.238)"><path d="M0.425,-0.388l-0.262,0l0,-0.213l0.277,0l0,-0.073l-0.364,-0l-0,0.674l0.379,-0l0,-0.073l-0.292,-0l-0,-0.243l0.262,-0l-0,-0.072Z" style="fill:#fff;fill-rule:nonzero;"/></g><g transform="matrix(50,0,0,50,547.497,605.238)"><path d="M0.076,-0l0.087,-0l0,-0.292l0.082,0c0.079,0.003 0.115,0.038 0.135,0.131c0.019,0.084 0.034,0.141 0.045,0.161l0.09,-0c-0.014,-0.026 -0.03,-0.091 -0.052,-0.185c-0.016,-0.07 -0.047,-0.118 -0.099,-0.136l0,-0.003c0.071,-0.024 0.127,-0.083 0.127,-0.172c0,-0.052 -0.019,-0.098 -0.053,-0.128c-0.042,-0.038 -0.102,-0.055 -0.195,-0.055c-0.06,0 -0.123,0.005 -0.167,0.014l0,0.665Zm0.087,-0.604c0.014,-0.004 0.044,-0.008 0.086,-0.008c0.092,0.001 0.155,0.039 0.155,0.126c0,0.077 -0.059,0.128 -0.152,0.128l-0.089,0l0,-0.246Z" style="fill:#fff;fill-rule:nonzero;"/></g><g transform="matrix(50,0,0,50,574.647,605.238)"><path d="M0.424,-0.212l0.072,0.212l0.093,-0l-0.23,-0.674l-0.105,0l-0.229,0.674l0.09,-0l0.07,-0.212l0.239,0Zm-0.221,-0.068l0.066,-0.195c0.013,-0.041 0.024,-0.082 0.034,-0.122l0.002,0c0.01,0.039 0.02,0.079 0.035,0.123l0.066,0.194l-0.203,-0Z" style="fill:#fff;fill-rule:nonzero;"/></g><g transform="matrix(50,0,0,50,605.247,605.238)"><path d="M0.433,-0.65l-0.311,0l-0.042,0.312c0.024,-0.003 0.053,-0.007 0.09,-0.007c0.13,0 0.186,0.06 0.187,0.144c0,0.087 -0.071,0.141 -0.154,0.141c-0.059,0 -0.112,-0.02 -0.139,-0.036l-0.022,0.067c0.031,0.02 0.091,0.04 0.162,0.04c0.141,-0 0.242,-0.095 0.242,-0.222c0,-0.082 -0.042,-0.138 -0.093,-0.167c-0.04,-0.024 -0.09,-0.035 -0.14,-0.035c-0.024,0 -0.038,0.002 -0.053,0.004l0.025,-0.167l0.248,0l0,-0.074Z" style="fill:#fff;fill-rule:nonzero;"/></g><g transform="matrix(50,0,0,50,641.497,605.238)"><path d="M0.076,-0l0.087,-0l0,-0.292l0.082,0c0.079,0.003 0.115,0.038 0.135,0.131c0.019,0.084 0.034,0.141 0.045,0.161l0.09,-0c-0.014,-0.026 -0.03,-0.091 -0.052,-0.185c-0.016,-0.07 -0.047,-0.118 -0.099,-0.136l0,-0.003c0.071,-0.024 0.127,-0.083 0.127,-0.172c0,-0.052 -0.019,-0.098 -0.053,-0.128c-0.042,-0.038 -0.102,-0.055 -0.195,-0.055c-0.06,0 -0.123,0.005 -0.167,0.014l0,0.665Zm0.087,-0.604c0.014,-0.004 0.044,-0.008 0.086,-0.008c0.092,0.001 0.155,0.039 0.155,0.126c0,0.077 -0.059,0.128 -0.152,0.128l-0.089,0l0,-0.246Z" style="fill:#fff;fill-rule:nonzero;"/></g><g transform="matrix(50,0,0,50,668.597,605.238)"><path d="M0.462,-0.226c0.001,-0.009 0.003,-0.023 0.003,-0.041c0,-0.089 -0.042,-0.228 -0.2,-0.228c-0.141,0 -0.227,0.115 -0.227,0.261c-0,0.146 0.089,0.245 0.238,0.245c0.077,-0 0.13,-0.017 0.161,-0.031l-0.015,-0.063c-0.033,0.014 -0.071,0.025 -0.134,0.025c-0.088,-0 -0.164,-0.049 -0.166,-0.168l0.34,0Zm-0.339,-0.063c0.007,-0.061 0.046,-0.143 0.135,-0.143c0.099,0 0.123,0.087 0.122,0.143l-0.257,0Z" style="fill:#fff;fill-rule:nonzero;"/></g><g transform="matrix(50,0,0,50,693.647,605.238)"><path d="M0.413,-0.297c0,-0.097 -0.036,-0.198 -0.184,-0.198c-0.061,0 -0.119,0.017 -0.159,0.043l0.02,0.058c0.034,-0.022 0.081,-0.036 0.126,-0.036c0.099,0 0.11,0.072 0.11,0.112l0,0.01c-0.187,-0.001 -0.291,0.063 -0.291,0.18c-0,0.07 0.05,0.139 0.148,0.139c0.069,0 0.121,-0.034 0.148,-0.072l0.003,0l0.007,0.061l0.08,0c-0.006,-0.033 -0.008,-0.074 -0.008,-0.116l0,-0.181Zm-0.085,0.134c0,0.009 -0.002,0.019 -0.005,0.028c-0.014,0.041 -0.054,0.081 -0.117,0.081c-0.045,0 -0.083,-0.027 -0.083,-0.084c-0,-0.094 0.109,-0.111 0.205,-0.109l0,0.084Z" style="fill:#fff;fill-rule:nonzero;"/></g><g transform="matrix(50,0,0,50,717.747,605.238)"><path d="M0.073,-0l0.088,-0l0,-0.291c0,-0.015 0.002,-0.03 0.006,-0.041c0.015,-0.049 0.06,-0.09 0.118,-0.09c0.083,-0 0.112,0.065 0.112,0.143l0,0.279l0.088,-0l0,-0.289c0,-0.166 -0.104,-0.206 -0.171,-0.206c-0.08,-0 -0.136,0.045 -0.16,0.091l-0.002,-0l-0.005,-0.08l-0.078,-0c0.003,0.04 0.004,0.081 0.004,0.131l0,0.353Z" style="fill:#fff;fill-rule:nonzero;"/></g><g transform="matrix(50,0,0,50,745.497,605.238)"><path d="M0.413,-0.297c0,-0.097 -0.036,-0.198 -0.184,-0.198c-0.061,0 -0.119,0.017 -0.159,0.043l0.02,0.058c0.034,-0.022 0.081,-0.036 0.126,-0.036c0.099,0 0.11,0.072 0.11,0.112l0,0.01c-0.187,-0.001 -0.291,0.063 -0.291,0.18c-0,0.07 0.05,0.139 0.148,0.139c0.069,0 0.121,-0.034 0.148,-0.072l0.003,0l0.007,0.061l0.08,0c-0.006,-0.033 -0.008,-0.074 -0.008,-0.116l0,-0.181Zm-0.085,0.134c0,0.009 -0.002,0.019 -0.005,0.028c-0.014,0.041 -0.054,0.081 -0.117,0.081c-0.045,0 -0.083,-0.027 -0.083,-0.084c-0,-0.094 0.109,-0.111 0.205,-0.109l0,0.084Z" style="fill:#fff;fill-rule:nonzero;"/></g><g transform="matrix(50,0,0,50,769.597,605.238)"><rect x="0.073" y="-0.71" width="0.088" height="0.71" style="fill:#fff;fill-rule:nonzero;"/></g><g transform="matrix(50,0,0,50,781.397,605.238)"><path d="M0.009,-0.484l0.179,0.446c0.004,0.011 0.006,0.018 0.006,0.023c0,0.005 -0.003,0.012 -0.007,0.021c-0.02,0.045 -0.05,0.079 -0.074,0.098c-0.026,0.022 -0.055,0.036 -0.077,0.043l0.022,0.074c0.022,-0.004 0.065,-0.019 0.108,-0.057c0.06,-0.052 0.103,-0.137 0.166,-0.303l0.132,-0.345l-0.093,0l-0.096,0.284c-0.012,0.035 -0.022,0.072 -0.031,0.101l-0.002,-0c-0.008,-0.029 -0.02,-0.067 -0.031,-0.099l-0.106,-0.286l-0.096,0Z" style="fill:#fff;fill-rule:nonzero;"/></g><g transform="matrix(50,0,0,50,804.647,605.238)"><path d="M0.039,-0.023c0.034,0.02 0.083,0.034 0.136,0.034c0.115,-0 0.181,-0.061 0.181,-0.146c0,-0.072 -0.043,-0.114 -0.127,-0.146c-0.063,-0.024 -0.092,-0.042 -0.092,-0.082c0,-0.036 0.029,-0.066 0.081,-0.066c0.045,0 0.08,0.016 0.099,0.028l0.022,-0.064c-0.027,-0.016 -0.07,-0.03 -0.119,-0.03c-0.104,0 -0.167,0.064 -0.167,0.142c0,0.058 0.041,0.106 0.128,0.137c0.065,0.024 0.09,0.047 0.09,0.089c0,0.04 -0.03,0.072 -0.094,0.072c-0.044,-0 -0.09,-0.018 -0.116,-0.035l-0.022,0.067Z" style="fill:#fff;fill-rule:nonzero;"/></g><g transform="matrix(50,0,0,50,824.447,605.238)"><path d="M0.161,-0l0,-0.484l-0.088,0l-0,0.484l0.088,-0Zm-0.044,-0.675c-0.032,0 -0.055,0.024 -0.055,0.055c-0,0.03 0.022,0.054 0.053,0.054c0.035,-0 0.057,-0.024 0.056,-0.054c0,-0.031 -0.021,-0.055 -0.054,-0.055Z" style="fill:#fff;fill-rule:nonzero;"/></g><g transform="matrix(50,0,0,50,836.147,605.238)"><path d="M0.039,-0.023c0.034,0.02 0.083,0.034 0.136,0.034c0.115,-0 0.181,-0.061 0.181,-0.146c0,-0.072 -0.043,-0.114 -0.127,-0.146c-0.063,-0.024 -0.092,-0.042 -0.092,-0.082c0,-0.036 0.029,-0.066 0.081,-0.066c0.045,0 0.08,0.016 0.099,0.028l0.022,-0.064c-0.027,-0.016 -0.07,-0.03 -0.119,-0.03c-0.104,0 -0.167,0.064 -0.167,0.142c0,0.058 0.041,0.106 0.128,0.137c0.065,0.024 0.09,0.047 0.09,0.089c0,0.04 -0.03,0.072 -0.094,0.072c-0.044,-0 -0.09,-0.018 -0.116,-0.035l-0.022,0.067Z" style="fill:#fff;fill-rule:nonzero;"/></g><g transform="matrix(50,0,0,50,524.797,665.238)"><path d="M0.529,-0.091c-0.035,0.017 -0.089,0.028 -0.142,0.028c-0.164,0 -0.259,-0.106 -0.259,-0.271c0,-0.177 0.105,-0.278 0.263,-0.278c0.056,0 0.103,0.012 0.136,0.028l0.021,-0.071c-0.023,-0.012 -0.076,-0.03 -0.16,-0.03c-0.209,0 -0.352,0.143 -0.352,0.354c-0,0.221 0.143,0.342 0.333,0.342c0.082,0 0.146,-0.017 0.178,-0.033l-0.018,-0.069Z" style="fill:#fff;fill-rule:nonzero;"/></g><g transform="matrix(50,0,0,50,553.797,665.238)"><rect x="0.073" y="-0.71" width="0.088" height="0.71" style="fill:#fff;fill-rule:nonzero;"/></g><g transform="matrix(50,0,0,50,565.597,665.238)"><path d="M0.161,-0l0,-0.484l-0.088,0l-0,0.484l0.088,-0Zm-0.044,-0.675c-0.032,0 -0.055,0.024 -0.055,0.055c-0,0.03 0.022,0.054 0.053,0.054c0.035,-0 0.057,-0.024 0.056,-0.054c0,-0.031 -0.021,-0.055 -0.054,-0.055Z" style="fill:#fff;fill-rule:nonzero;"/></g><g transform="matrix(50,0,0,50,577.297,665.238)"><path d="M0.073,-0l0.086,-0l0,-0.292c0,-0.015 0.002,-0.03 0.007,-0.043c0.014,-0.044 0.054,-0.088 0.109,-0.088c0.067,-0 0.101,0.056 0.101,0.133l0,0.29l0.086,-0l0,-0.299c0,-0.016 0.003,-0.032 0.007,-0.044c0.015,-0.043 0.054,-0.08 0.104,-0.08c0.071,-0 0.105,0.056 0.105,0.149l0,0.274l0.086,-0l0,-0.285c0,-0.168 -0.095,-0.21 -0.159,-0.21c-0.046,-0 -0.078,0.012 -0.107,0.034c-0.02,0.015 -0.039,0.036 -0.054,0.063l-0.002,-0c-0.021,-0.057 -0.071,-0.097 -0.137,-0.097c-0.08,-0 -0.125,0.043 -0.152,0.089l-0.003,-0l-0.004,-0.078l-0.077,-0c0.003,0.04 0.004,0.081 0.004,0.131l0,0.353Z" style="fill:#fff;fill-rule:nonzero;"/></g><g transform="matrix(50,0,0,50,618.997,665.238)"><path d="M0.413,-0.297c0,-0.097 -0.036,-0.198 -0.184,-0.198c-0.061,0 -0.119,0.017 -0.159,0.043l0.02,0.058c0.034,-0.022 0.081,-0.036 0.126,-0.036c0.099,0 0.11,0.072 0.11,0.112l0,0.01c-0.187,-0.001 -0.291,0.063 -0.291,0.18c-0,0.07 0.05,0.139 0.148,0.139c0.069,0 0.121,-0.034 0.148,-0.072l0.003,0l0.007,0.061l0.08,0c-0.006,-0.033 -0.008,-0.074 -0.008,-0.116l0,-0.181Zm-0.085,0.134c0,0.009 -0.002,0.019 -0.005,0.028c-0.014,0.041 -0.054,0.081 -0.117,0.081c-0.045,0 -0.083,-0.027 -0.083,-0.084c-0,-0.094 0.109,-0.111 0.205,-0.109l0,0.084Z" style="fill:#fff;fill-rule:nonzero;"/></g><g transform="matrix(50,0,0,50,642.897,665.238)"><path d="M0.093,-0.573l0,0.089l-0.075,0l0,0.067l0.075,0l0,0.264c0,0.057 0.009,0.1 0.034,0.126c0.021,0.024 0.054,0.038 0.095,0.038c0.034,0 0.061,-0.006 0.078,-0.013l-0.004,-0.066c-0.013,0.004 -0.027,0.006 -0.051,0.006c-0.049,0 -0.066,-0.034 -0.066,-0.094l0,-0.261l0.126,0l0,-0.067l-0.126,0l0,-0.116l-0.086,0.027Z" style="fill:#fff;fill-rule:nonzero;"/></g><g transform="matrix(50,0,0,50,659.147,665.238)"><path d="M0.462,-0.226c0.001,-0.009 0.003,-0.023 0.003,-0.041c0,-0.089 -0.042,-0.228 -0.2,-0.228c-0.141,0 -0.227,0.115 -0.227,0.261c-0,0.146 0.089,0.245 0.238,0.245c0.077,-0 0.13,-0.017 0.161,-0.031l-0.015,-0.063c-0.033,0.014 -0.071,0.025 -0.134,0.025c-0.088,-0 -0.164,-0.049 -0.166,-0.168l0.34,0Zm-0.339,-0.063c0.007,-0.061 0.046,-0.143 0.135,-0.143c0.099,0 0.123,0.087 0.122,0.143l-0.257,0Z" style="fill:#fff;fill-rule:nonzero;"/></g><g transform="matrix(50,0,0,50,694.797,665.238)"><path d="M0.076,-0.002c0.044,0.005 0.096,0.008 0.158,0.008c0.131,0 0.235,-0.034 0.298,-0.097c0.063,-0.062 0.097,-0.152 0.097,-0.262c0,-0.109 -0.035,-0.187 -0.095,-0.242c-0.059,-0.055 -0.148,-0.084 -0.273,-0.084c-0.069,-0 -0.132,0.006 -0.185,0.014l-0,0.663Zm0.087,-0.599c0.023,-0.005 0.057,-0.009 0.102,-0.009c0.184,-0 0.274,0.101 0.273,0.26c0,0.182 -0.101,0.286 -0.287,0.286c-0.034,-0 -0.066,-0.001 -0.088,-0.005l0,-0.532Z" style="fill:#fff;fill-rule:nonzero;"/></g><g transform="matrix(50,0,0,50,728.097,665.238)"><path d="M0.413,-0.297c0,-0.097 -0.036,-0.198 -0.184,-0.198c-0.061,0 -0.119,0.017 -0.159,0.043l0.02,0.058c0.034,-0.022 0.081,-0.036 0.126,-0.036c0.099,0 0.11,0.072 0.11,0.112l0,0.01c-0.187,-0.001 -0.291,0.063 -0.291,0.18c-0,0.07 0.05,0.139 0.148,0.139c0.069,0 0.121,-0.034 0.148,-0.072l0.003,0l0.007,0.061l0.08,0c-0.006,-0.033 -0.008,-0.074 -0.008,-0.116l0,-0.181Zm-0.085,0.134c0,0.009 -0.002,0.019 -0.005,0.028c-0.014,0.041 -0.054,0.081 -0.117,0.081c-0.045,0 -0.083,-0.027 -0.083,-0.084c-0,-0.094 0.109,-0.111 0.205,-0.109l0,0.084Z" style="fill:#fff;fill-rule:nonzero;"/></g><g transform="matrix(50,0,0,50,751.997,665.238)"><path d="M0.093,-0.573l0,0.089l-0.075,0l0,0.067l0.075,0l0,0.264c0,0.057 0.009,0.1 0.034,0.126c0.021,0.024 0.054,0.038 0.095,0.038c0.034,0 0.061,-0.006 0.078,-0.013l-0.004,-0.066c-0.013,0.004 -0.027,0.006 -0.051,0.006c-0.049,0 -0.066,-0.034 -0.066,-0.094l0,-0.261l0.126,0l0,-0.067l-0.126,0l0,-0.116l-0.086,0.027Z" style="fill:#fff;fill-rule:nonzero;"/></g><g transform="matrix(50,0,0,50,768.547,665.238)"><path d="M0.413,-0.297c0,-0.097 -0.036,-0.198 -0.184,-0.198c-0.061,0 -0.119,0.017 -0.159,0.043l0.02,0.058c0.034,-0.022 0.081,-0.036 0.126,-0.036c0.099,0 0.11,0.072 0.11,0.112l0,0.01c-0.187,-0.001 -0.291,0.063 -0.291,0.18c-0,0.07 0.05,0.139 0.148,0.139c0.069,0 0.121,-0.034 0.148,-0.072l0.003,0l0.007,0.061l0.08,0c-0.006,-0.033 -0.008,-0.074 -0.008,-0.116l0,-0.181Zm-0.085,0.134c0,0.009 -0.002,0.019 -0.005,0.028c-0.014,0.041 -0.054,0.081 -0.117,0.081c-0.045,0 -0.083,-0.027 -0.083,-0.084c-0,-0.094 0.109,-0.111 0.205,-0.109l0,0.084Z" style="fill:#fff;fill-rule:nonzero;"/></g><g transform="matrix(50,0,0,50,792.647,665.238)"><path d="M0.039,-0.023c0.034,0.02 0.083,0.034 0.136,0.034c0.115,-0 0.181,-0.061 0.181,-0.146c0,-0.072 -0.043,-0.114 -0.127,-0.146c-0.063,-0.024 -0.092,-0.042 -0.092,-0.082c0,-0.036 0.029,-0.066 0.081,-0.066c0.045,0 0.08,0.016 0.099,0.028l0.022,-0.064c-0.027,-0.016 -0.07,-0.03 -0.119,-0.03c-0.104,0 -0.167,0.064 -0.167,0.142c0,0.058 0.041,0.106 0.128,0.137c0.065,0.024 0.09,0.047 0.09,0.089c0,0.04 -0.03,0.072 -0.094,0.072c-0.044,-0 -0.09,-0.018 -0.116,-0.035l-0.022,0.067Z" style="fill:#fff;fill-rule:nonzero;"/></g><g transform="matrix(50,0,0,50,812.447,665.238)"><path d="M0.462,-0.226c0.001,-0.009 0.003,-0.023 0.003,-0.041c0,-0.089 -0.042,-0.228 -0.2,-0.228c-0.141,0 -0.227,0.115 -0.227,0.261c-0,0.146 0.089,0.245 0.238,0.245c0.077,-0 0.13,-0.017 0.161,-0.031l-0.015,-0.063c-0.033,0.014 -0.071,0.025 -0.134,0.025c-0.088,-0 -0.164,-0.049 -0.166,-0.168l0.34,0Zm-0.339,-0.063c0.007,-0.061 0.046,-0.143 0.135,-0.143c0.099,0 0.123,0.087 0.122,0.143l-0.257,0Z" style="fill:#fff;fill-rule:nonzero;"/></g><g transform="matrix(50,0,0,50,837.497,665.238)"><path d="M0.093,-0.573l0,0.089l-0.075,0l0,0.067l0.075,0l0,0.264c0,0.057 0.009,0.1 0.034,0.126c0.021,0.024 0.054,0.038 0.095,0.038c0.034,0 0.061,-0.006 0.078,-0.013l-0.004,-0.066c-0.013,0.004 -0.027,0.006 -0.051,0.006c-0.049,0 -0.066,-0.034 -0.066,-0.094l0,-0.261l0.126,0l0,-0.067l-0.126,0l0,-0.116l-0.086,0.027Z" style="fill:#fff;fill-rule:nonzero;"/></g></g><path d="M2440.49,848.907l0,105.145c0,29.016 -23.557,52.573 -52.573,52.573l-542.91,-0c-29.016,-0 -52.573,-23.557 -52.573,-52.573l0,-105.145c0,-29.016 23.557,-52.573 52.573,-52.573l542.91,0c29.016,0 52.573,23.557 52.573,52.573Z" style="fill:#2563eb;stroke:#2563eb;stroke-width:1.67px;"/><path d="M1911.34,956.563l13.869,-0l0,-45.864c0,-2.364 0.315,-4.728 0.946,-6.461c2.364,-7.723 9.456,-14.185 18.597,-14.185c13.081,0 17.652,10.245 17.652,22.538l-0,43.972l13.869,-0l0,-45.548c0,-26.163 -16.391,-32.467 -26.95,-32.467c-12.609,0 -21.435,7.092 -25.217,14.342l-0.315,0l-0.788,-12.608l-12.294,-0c0.473,6.304 0.631,12.766 0.631,20.646l-0,55.635Z" style="fill:#fff;fill-rule:nonzero;"/><path d="M2050.82,943.324c-3.941,1.733 -9.142,3.782 -17.022,3.782c-15.13,0 -26.478,-10.874 -26.478,-28.526c0,-15.918 9.457,-28.842 26.951,-28.842c7.565,-0 12.766,1.734 16.076,3.625l3.152,-10.717c-3.783,-1.892 -11.033,-3.94 -19.228,-3.94c-24.902,-0 -40.977,17.021 -40.977,40.504c-0,23.326 14.972,39.086 37.982,39.086c10.245,0 18.283,-2.679 21.908,-4.57l-2.364,-10.402Z" style="fill:#fff;fill-rule:nonzero;"/><path d="M2069.89,956.563l13.711,-0l0,-42.554c3.153,0.788 6.935,0.946 11.033,0.946c13.396,-0 25.217,-3.94 32.466,-11.663c5.359,-5.516 8.196,-13.081 8.196,-22.695c-0,-9.456 -3.467,-17.179 -9.299,-22.222c-6.304,-5.674 -16.233,-8.826 -29.787,-8.826c-11.033,-0 -19.701,0.945 -26.32,2.048l-0,104.966Zm13.711,-95.036c2.364,-0.631 6.935,-1.104 12.924,-1.104c15.13,0 25.059,6.777 25.059,20.804c0,14.658 -10.086,22.695 -26.635,22.695c-4.571,0 -8.353,-0.315 -11.348,-1.103l0,-41.292Z" style="fill:#fff;fill-rule:nonzero;"/><path d="M2164.62,956.563l-0,-76.281l-13.87,-0l0,76.281l13.87,-0Zm-6.935,-106.384c-5.043,0 -8.668,3.783 -8.668,8.668c-0,4.728 3.467,8.511 8.353,8.511c5.516,0 8.983,-3.783 8.826,-8.511c-0,-4.885 -3.31,-8.668 -8.511,-8.668Z" style="fill:#fff;fill-rule:nonzero;"/><path d="M2239.64,943.324c-3.94,1.733 -9.141,3.782 -17.022,3.782c-15.13,0 -26.477,-10.874 -26.477,-28.526c-0,-15.918 9.456,-28.842 26.95,-28.842c7.565,-0 12.766,1.734 16.076,3.625l3.152,-10.717c-3.783,-1.892 -11.032,-3.94 -19.228,-3.94c-24.902,-0 -40.977,17.021 -40.977,40.504c-0,23.326 14.972,39.086 37.983,39.086c10.244,0 18.282,-2.679 21.907,-4.57l-2.364,-10.402Z" style="fill:#fff;fill-rule:nonzero;"/><path d="M2271.95,844.663l-13.712,-0l0,111.9l13.712,-0l-0,-28.685l7.092,-7.88l26.32,36.565l16.864,-0l-33.57,-44.918l29.472,-31.363l-16.706,-0l-22.38,26.32c-2.206,2.679 -4.886,5.989 -6.777,8.668l-0.315,0l-0,-70.607Z" style="fill:#fff;fill-rule:nonzero;"/><path d="M2111.42,1086.81l-0,37.037l-35.619,0l-0,9.457l35.619,-0l-0,37.352l10.086,0l0,-37.352l35.619,-0l0,-9.457l-35.619,0l0,-37.037l-10.086,0Z" style="fill:#2563eb;fill-rule:nonzero;"/><g transform="matrix(3.15211,0,0,3.15211,-58.7562,-404.497)"><g transform="matrix(36.8434,0,0,36.8434,634.434,545.238)"><path d="M0.076,-0.002c0.029,0.004 0.075,0.008 0.135,0.008c0.11,0 0.186,-0.02 0.233,-0.063c0.034,-0.033 0.057,-0.077 0.057,-0.135c-0,-0.1 -0.075,-0.153 -0.139,-0.169l-0,-0.002c0.071,-0.026 0.114,-0.083 0.114,-0.148c-0,-0.053 -0.021,-0.093 -0.056,-0.119c-0.042,-0.034 -0.098,-0.049 -0.185,-0.049c-0.061,0 -0.121,0.006 -0.159,0.014l-0,0.663Zm0.087,-0.604c0.014,-0.003 0.037,-0.006 0.077,-0.006c0.088,0 0.148,0.031 0.148,0.11c-0,0.065 -0.054,0.113 -0.146,0.113l-0.079,0l-0,-0.217Zm-0,0.283l0.072,-0c0.095,-0 0.174,0.038 0.174,0.13c-0,0.098 -0.083,0.131 -0.173,0.131c-0.031,-0 -0.056,-0.001 -0.073,-0.004l-0,-0.257Z" style="fill:#2563eb;fill-rule:nonzero;"/></g><g transform="matrix(36.8434,0,0,36.8434,654.403,545.238)"><path d="M0.478,-0.484l-0.088,0l0,0.297c0,0.016 -0.003,0.032 -0.008,0.045c-0.016,0.039 -0.057,0.08 -0.116,0.08c-0.08,0 -0.108,-0.062 -0.108,-0.154l-0,-0.268l-0.088,0l-0,0.283c-0,0.17 0.091,0.212 0.167,0.212c0.086,0 0.137,-0.051 0.16,-0.09l0.002,0l0.005,0.079l0.078,0c-0.003,-0.038 -0.004,-0.082 -0.004,-0.132l0,-0.352Z" style="fill:#2563eb;fill-rule:nonzero;"/></g><g transform="matrix(36.8434,0,0,36.8434,674.703,545.238)"><path d="M0.161,-0l0,-0.484l-0.088,0l-0,0.484l0.088,-0Zm-0.044,-0.675c-0.032,0 -0.055,0.024 -0.055,0.055c-0,0.03 0.022,0.054 0.053,0.054c0.035,-0 0.057,-0.024 0.056,-0.054c0,-0.031 -0.021,-0.055 -0.054,-0.055Z" style="fill:#2563eb;fill-rule:nonzero;"/></g><g transform="matrix(36.8434,0,0,36.8434,683.325,545.238)"><rect x="0.073" y="-0.71" width="0.088" height="0.71" style="fill:#2563eb;fill-rule:nonzero;"/></g><g transform="matrix(36.8434,0,0,36.8434,692.02,545.238)"><path d="M0.093,-0.573l0,0.089l-0.075,0l0,0.067l0.075,0l0,0.264c0,0.057 0.009,0.1 0.034,0.126c0.021,0.024 0.054,0.038 0.095,0.038c0.034,0 0.061,-0.006 0.078,-0.013l-0.004,-0.066c-0.013,0.004 -0.027,0.006 -0.051,0.006c-0.049,0 -0.066,-0.034 -0.066,-0.094l0,-0.261l0.126,0l0,-0.067l-0.126,0l0,-0.116l-0.086,0.027Z" style="fill:#2563eb;fill-rule:nonzero;"/></g><g transform="matrix(36.8434,0,0,36.8434,704.031,545.238)"><rect x="0.03" y="-0.303" width="0.247" height="0.065" style="fill:#2563eb;fill-rule:nonzero;"/></g><g transform="matrix(36.8434,0,0,36.8434,715.342,545.238)"><path d="M0.161,-0l0,-0.484l-0.088,0l-0,0.484l0.088,-0Zm-0.044,-0.675c-0.032,0 -0.055,0.024 -0.055,0.055c-0,0.03 0.022,0.054 0.053,0.054c0.035,-0 0.057,-0.024 0.056,-0.054c0,-0.031 -0.021,-0.055 -0.054,-0.055Z" style="fill:#2563eb;fill-rule:nonzero;"/></g><g transform="matrix(36.8434,0,0,36.8434,723.963,545.238)"><path d="M0.073,-0l0.088,-0l0,-0.291c0,-0.015 0.002,-0.03 0.006,-0.041c0.015,-0.049 0.06,-0.09 0.118,-0.09c0.083,-0 0.112,0.065 0.112,0.143l0,0.279l0.088,-0l0,-0.289c0,-0.166 -0.104,-0.206 -0.171,-0.206c-0.08,-0 -0.136,0.045 -0.16,0.091l-0.002,-0l-0.005,-0.08l-0.078,-0c0.003,0.04 0.004,0.081 0.004,0.131l0,0.353Z" style="fill:#2563eb;fill-rule:nonzero;"/></g><g transform="matrix(36.8434,0,0,36.8434,650.203,589.45)"><path d="M0.073,-0.125c0,0.043 -0.002,0.092 -0.004,0.125l0.076,-0l0.004,-0.08l0.003,0c0.036,0.064 0.092,0.091 0.162,0.091c0.108,0 0.217,-0.086 0.217,-0.259c0.001,-0.147 -0.084,-0.247 -0.204,-0.247c-0.078,0 -0.134,0.035 -0.165,0.089l-0.002,0l0,-0.304l-0.087,0l0,0.585Zm0.087,-0.156c0,-0.014 0.003,-0.026 0.005,-0.036c0.018,-0.067 0.074,-0.108 0.134,-0.108c0.094,0 0.144,0.083 0.144,0.18c-0,0.111 -0.055,0.186 -0.147,0.186c-0.064,0 -0.115,-0.042 -0.132,-0.103c-0.002,-0.01 -0.004,-0.021 -0.004,-0.032l-0,-0.087Z" style="fill:#2563eb;fill-rule:nonzero;"/></g><g transform="matrix(36.8434,0,0,36.8434,671.166,589.45)"><path d="M0.413,-0.297c0,-0.097 -0.036,-0.198 -0.184,-0.198c-0.061,0 -0.119,0.017 -0.159,0.043l0.02,0.058c0.034,-0.022 0.081,-0.036 0.126,-0.036c0.099,0 0.11,0.072 0.11,0.112l0,0.01c-0.187,-0.001 -0.291,0.063 -0.291,0.18c-0,0.07 0.05,0.139 0.148,0.139c0.069,0 0.121,-0.034 0.148,-0.072l0.003,0l0.007,0.061l0.08,0c-0.006,-0.033 -0.008,-0.074 -0.008,-0.116l0,-0.181Zm-0.085,0.134c0,0.009 -0.002,0.019 -0.005,0.028c-0.014,0.041 -0.054,0.081 -0.117,0.081c-0.045,0 -0.083,-0.027 -0.083,-0.084c-0,-0.094 0.109,-0.111 0.205,-0.109l0,0.084Z" style="fill:#2563eb;fill-rule:nonzero;"/></g><g transform="matrix(36.8434,0,0,36.8434,688.925,589.45)"><path d="M0.039,-0.023c0.034,0.02 0.083,0.034 0.136,0.034c0.115,-0 0.181,-0.061 0.181,-0.146c0,-0.072 -0.043,-0.114 -0.127,-0.146c-0.063,-0.024 -0.092,-0.042 -0.092,-0.082c0,-0.036 0.029,-0.066 0.081,-0.066c0.045,0 0.08,0.016 0.099,0.028l0.022,-0.064c-0.027,-0.016 -0.07,-0.03 -0.119,-0.03c-0.104,0 -0.167,0.064 -0.167,0.142c0,0.058 0.041,0.106 0.128,0.137c0.065,0.024 0.09,0.047 0.09,0.089c0,0.04 -0.03,0.072 -0.094,0.072c-0.044,-0 -0.09,-0.018 -0.116,-0.035l-0.022,0.067Z" style="fill:#2563eb;fill-rule:nonzero;"/></g><g transform="matrix(36.8434,0,0,36.8434,703.515,589.45)"><path d="M0.161,-0l0,-0.484l-0.088,0l-0,0.484l0.088,-0Zm-0.044,-0.675c-0.032,0 -0.055,0.024 -0.055,0.055c-0,0.03 0.022,0.054 0.053,0.054c0.035,-0 0.057,-0.024 0.056,-0.054c0,-0.031 -0.021,-0.055 -0.054,-0.055Z" style="fill:#2563eb;fill-rule:nonzero;"/></g><g transform="matrix(36.8434,0,0,36.8434,712.136,589.45)"><path d="M0.403,-0.084c-0.025,0.011 -0.058,0.024 -0.108,0.024c-0.096,0 -0.168,-0.069 -0.168,-0.181c-0,-0.101 0.06,-0.183 0.171,-0.183c0.048,0 0.081,0.011 0.102,0.023l0.02,-0.068c-0.024,-0.012 -0.07,-0.025 -0.122,-0.025c-0.158,0 -0.26,0.108 -0.26,0.257c-0,0.148 0.095,0.248 0.241,0.248c0.065,-0 0.116,-0.017 0.139,-0.029l-0.015,-0.066Z" style="fill:#2563eb;fill-rule:nonzero;"/></g><g transform="matrix(36.8434,0,0,36.8434,590.019,633.663)"><path d="M0.013,-0.484l0.184,0.484l0.084,-0l0.19,-0.484l-0.092,0l-0.094,0.272c-0.016,0.044 -0.03,0.084 -0.041,0.124l-0.003,-0c-0.01,-0.04 -0.023,-0.08 -0.039,-0.124l-0.095,-0.272l-0.094,0Z" style="fill:#2563eb;fill-rule:nonzero;"/></g><g transform="matrix(36.8434,0,0,36.8434,607.741,633.663)"><path d="M0.161,-0l0,-0.484l-0.088,0l-0,0.484l0.088,-0Zm-0.044,-0.675c-0.032,0 -0.055,0.024 -0.055,0.055c-0,0.03 0.022,0.054 0.053,0.054c0.035,-0 0.057,-0.024 0.056,-0.054c0,-0.031 -0.021,-0.055 -0.054,-0.055Z" style="fill:#2563eb;fill-rule:nonzero;"/></g><g transform="matrix(36.8434,0,0,36.8434,616.362,633.663)"><path d="M0.039,-0.023c0.034,0.02 0.083,0.034 0.136,0.034c0.115,-0 0.181,-0.061 0.181,-0.146c0,-0.072 -0.043,-0.114 -0.127,-0.146c-0.063,-0.024 -0.092,-0.042 -0.092,-0.082c0,-0.036 0.029,-0.066 0.081,-0.066c0.045,0 0.08,0.016 0.099,0.028l0.022,-0.064c-0.027,-0.016 -0.07,-0.03 -0.119,-0.03c-0.104,0 -0.167,0.064 -0.167,0.142c0,0.058 0.041,0.106 0.128,0.137c0.065,0.024 0.09,0.047 0.09,0.089c0,0.04 -0.03,0.072 -0.094,0.072c-0.044,-0 -0.09,-0.018 -0.116,-0.035l-0.022,0.067Z" style="fill:#2563eb;fill-rule:nonzero;"/></g><g transform="matrix(36.8434,0,0,36.8434,630.952,633.663)"><path d="M0.478,-0.484l-0.088,0l0,0.297c0,0.016 -0.003,0.032 -0.008,0.045c-0.016,0.039 -0.057,0.08 -0.116,0.08c-0.08,0 -0.108,-0.062 -0.108,-0.154l-0,-0.268l-0.088,0l-0,0.283c-0,0.17 0.091,0.212 0.167,0.212c0.086,0 0.137,-0.051 0.16,-0.09l0.002,0l0.005,0.079l0.078,0c-0.003,-0.038 -0.004,-0.082 -0.004,-0.132l0,-0.352Z" style="fill:#2563eb;fill-rule:nonzero;"/></g><g transform="matrix(36.8434,0,0,36.8434,651.253,633.663)"><path d="M0.413,-0.297c0,-0.097 -0.036,-0.198 -0.184,-0.198c-0.061,0 -0.119,0.017 -0.159,0.043l0.02,0.058c0.034,-0.022 0.081,-0.036 0.126,-0.036c0.099,0 0.11,0.072 0.11,0.112l0,0.01c-0.187,-0.001 -0.291,0.063 -0.291,0.18c-0,0.07 0.05,0.139 0.148,0.139c0.069,0 0.121,-0.034 0.148,-0.072l0.003,0l0.007,0.061l0.08,0c-0.006,-0.033 -0.008,-0.074 -0.008,-0.116l0,-0.181Zm-0.085,0.134c0,0.009 -0.002,0.019 -0.005,0.028c-0.014,0.041 -0.054,0.081 -0.117,0.081c-0.045,0 -0.083,-0.027 -0.083,-0.084c-0,-0.094 0.109,-0.111 0.205,-0.109l0,0.084Z" style="fill:#2563eb;fill-rule:nonzero;"/></g><g transform="matrix(36.8434,0,0,36.8434,669.011,633.663)"><rect x="0.073" y="-0.71" width="0.088" height="0.71" style="fill:#2563eb;fill-rule:nonzero;"/></g><g transform="matrix(36.8434,0,0,36.8434,677.706,633.663)"><path d="M0.161,-0l0,-0.484l-0.088,0l-0,0.484l0.088,-0Zm-0.044,-0.675c-0.032,0 -0.055,0.024 -0.055,0.055c-0,0.03 0.022,0.054 0.053,0.054c0.035,-0 0.057,-0.024 0.056,-0.054c0,-0.031 -0.021,-0.055 -0.054,-0.055Z" style="fill:#2563eb;fill-rule:nonzero;"/></g><g transform="matrix(36.8434,0,0,36.8434,686.328,633.663)"><path d="M0.018,-0l0.393,-0l0,-0.07l-0.283,0l0,-0.002c0.022,-0.025 0.042,-0.049 0.062,-0.076l0.216,-0.281l0.001,-0.055l-0.369,0l-0,0.071l0.262,0l-0,0.002c-0.022,0.026 -0.042,0.049 -0.063,0.075l-0.219,0.285l-0,0.051Z" style="fill:#2563eb;fill-rule:nonzero;"/></g><g transform="matrix(36.8434,0,0,36.8434,702.097,633.663)"><path d="M0.413,-0.297c0,-0.097 -0.036,-0.198 -0.184,-0.198c-0.061,0 -0.119,0.017 -0.159,0.043l0.02,0.058c0.034,-0.022 0.081,-0.036 0.126,-0.036c0.099,0 0.11,0.072 0.11,0.112l0,0.01c-0.187,-0.001 -0.291,0.063 -0.291,0.18c-0,0.07 0.05,0.139 0.148,0.139c0.069,0 0.121,-0.034 0.148,-0.072l0.003,0l0.007,0.061l0.08,0c-0.006,-0.033 -0.008,-0.074 -0.008,-0.116l0,-0.181Zm-0.085,0.134c0,0.009 -0.002,0.019 -0.005,0.028c-0.014,0.041 -0.054,0.081 -0.117,0.081c-0.045,0 -0.083,-0.027 -0.083,-0.084c-0,-0.094 0.109,-0.111 0.205,-0.109l0,0.084Z" style="fill:#2563eb;fill-rule:nonzero;"/></g><g transform="matrix(36.8434,0,0,36.8434,719.708,633.663)"><path d="M0.093,-0.573l0,0.089l-0.075,0l0,0.067l0.075,0l0,0.264c0,0.057 0.009,0.1 0.034,0.126c0.021,0.024 0.054,0.038 0.095,0.038c0.034,0 0.061,-0.006 0.078,-0.013l-0.004,-0.066c-0.013,0.004 -0.027,0.006 -0.051,0.006c-0.049,0 -0.066,-0.034 -0.066,-0.094l0,-0.261l0.126,0l0,-0.067l-0.126,0l0,-0.116l-0.086,0.027Z" style="fill:#2563eb;fill-rule:nonzero;"/></g><g transform="matrix(36.8434,0,0,36.8434,731.903,633.663)"><path d="M0.161,-0l0,-0.484l-0.088,0l-0,0.484l0.088,-0Zm-0.044,-0.675c-0.032,0 -0.055,0.024 -0.055,0.055c-0,0.03 0.022,0.054 0.053,0.054c0.035,-0 0.057,-0.024 0.056,-0.054c0,-0.031 -0.021,-0.055 -0.054,-0.055Z" style="fill:#2563eb;fill-rule:nonzero;"/></g><g transform="matrix(36.8434,0,0,36.8434,740.524,633.663)"><path d="M0.278,-0.495c-0.134,0 -0.24,0.095 -0.24,0.257c-0,0.153 0.101,0.249 0.232,0.249c0.117,-0 0.241,-0.078 0.241,-0.257c0,-0.148 -0.094,-0.249 -0.233,-0.249Zm-0.002,0.066c0.104,0 0.145,0.104 0.145,0.186c-0,0.109 -0.063,0.188 -0.147,0.188c-0.086,-0 -0.147,-0.08 -0.147,-0.186c-0,-0.092 0.045,-0.188 0.149,-0.188Z" style="fill:#2563eb;fill-rule:nonzero;"/></g><g transform="matrix(36.8434,0,0,36.8434,760.751,633.663)"><path d="M0.073,-0l0.088,-0l0,-0.291c0,-0.015 0.002,-0.03 0.006,-0.041c0.015,-0.049 0.06,-0.09 0.118,-0.09c0.083,-0 0.112,0.065 0.112,0.143l0,0.279l0.088,-0l0,-0.289c0,-0.166 -0.104,-0.206 -0.171,-0.206c-0.08,-0 -0.136,0.045 -0.16,0.091l-0.002,-0l-0.005,-0.08l-0.078,-0c0.003,0.04 0.004,0.081 0.004,0.131l0,0.353Z" style="fill:#2563eb;fill-rule:nonzero;"/></g><g transform="matrix(36.8434,0,0,36.8434,781.199,633.663)"><path d="M0.079,0.117c0.028,-0.047 0.072,-0.158 0.095,-0.243l-0.098,0.01c-0.011,0.073 -0.038,0.18 -0.059,0.239l0.062,-0.006Z" style="fill:#2563eb;fill-rule:nonzero;"/></g><g transform="matrix(36.8434,0,0,36.8434,596.227,677.875)"><path d="M0.413,-0.297c0,-0.097 -0.036,-0.198 -0.184,-0.198c-0.061,0 -0.119,0.017 -0.159,0.043l0.02,0.058c0.034,-0.022 0.081,-0.036 0.126,-0.036c0.099,0 0.11,0.072 0.11,0.112l0,0.01c-0.187,-0.001 -0.291,0.063 -0.291,0.18c-0,0.07 0.05,0.139 0.148,0.139c0.069,0 0.121,-0.034 0.148,-0.072l0.003,0l0.007,0.061l0.08,0c-0.006,-0.033 -0.008,-0.074 -0.008,-0.116l0,-0.181Zm-0.085,0.134c0,0.009 -0.002,0.019 -0.005,0.028c-0.014,0.041 -0.054,0.081 -0.117,0.081c-0.045,0 -0.083,-0.027 -0.083,-0.084c-0,-0.094 0.109,-0.111 0.205,-0.109l0,0.084Z" style="fill:#2563eb;fill-rule:nonzero;"/></g><g transform="matrix(36.8434,0,0,36.8434,613.985,677.875)"><path d="M0.073,-0l0.088,-0l0,-0.291c0,-0.015 0.002,-0.03 0.006,-0.041c0.015,-0.049 0.06,-0.09 0.118,-0.09c0.083,-0 0.112,0.065 0.112,0.143l0,0.279l0.088,-0l0,-0.289c0,-0.166 -0.104,-0.206 -0.171,-0.206c-0.08,-0 -0.136,0.045 -0.16,0.091l-0.002,-0l-0.005,-0.08l-0.078,-0c0.003,0.04 0.004,0.081 0.004,0.131l0,0.353Z" style="fill:#2563eb;fill-rule:nonzero;"/></g><g transform="matrix(36.8434,0,0,36.8434,634.434,677.875)"><path d="M0.413,-0.297c0,-0.097 -0.036,-0.198 -0.184,-0.198c-0.061,0 -0.119,0.017 -0.159,0.043l0.02,0.058c0.034,-0.022 0.081,-0.036 0.126,-0.036c0.099,0 0.11,0.072 0.11,0.112l0,0.01c-0.187,-0.001 -0.291,0.063 -0.291,0.18c-0,0.07 0.05,0.139 0.148,0.139c0.069,0 0.121,-0.034 0.148,-0.072l0.003,0l0.007,0.061l0.08,0c-0.006,-0.033 -0.008,-0.074 -0.008,-0.116l0,-0.181Zm-0.085,0.134c0,0.009 -0.002,0.019 -0.005,0.028c-0.014,0.041 -0.054,0.081 -0.117,0.081c-0.045,0 -0.083,-0.027 -0.083,-0.084c-0,-0.094 0.109,-0.111 0.205,-0.109l0,0.084Z" style="fill:#2563eb;fill-rule:nonzero;"/></g><g transform="matrix(36.8434,0,0,36.8434,652.192,677.875)"><rect x="0.073" y="-0.71" width="0.088" height="0.71" style="fill:#2563eb;fill-rule:nonzero;"/></g><g transform="matrix(36.8434,0,0,36.8434,660.887,677.875)"><path d="M0.009,-0.484l0.179,0.446c0.004,0.011 0.006,0.018 0.006,0.023c0,0.005 -0.003,0.012 -0.007,0.021c-0.02,0.045 -0.05,0.079 -0.074,0.098c-0.026,0.022 -0.055,0.036 -0.077,0.043l0.022,0.074c0.022,-0.004 0.065,-0.019 0.108,-0.057c0.06,-0.052 0.103,-0.137 0.166,-0.303l0.132,-0.345l-0.093,0l-0.096,0.284c-0.012,0.035 -0.022,0.072 -0.031,0.101l-0.002,-0c-0.008,-0.029 -0.02,-0.067 -0.031,-0.099l-0.106,-0.286l-0.096,0Z" style="fill:#2563eb;fill-rule:nonzero;"/></g><g transform="matrix(36.8434,0,0,36.8434,678.019,677.875)"><path d="M0.039,-0.023c0.034,0.02 0.083,0.034 0.136,0.034c0.115,-0 0.181,-0.061 0.181,-0.146c0,-0.072 -0.043,-0.114 -0.127,-0.146c-0.063,-0.024 -0.092,-0.042 -0.092,-0.082c0,-0.036 0.029,-0.066 0.081,-0.066c0.045,0 0.08,0.016 0.099,0.028l0.022,-0.064c-0.027,-0.016 -0.07,-0.03 -0.119,-0.03c-0.104,0 -0.167,0.064 -0.167,0.142c0,0.058 0.041,0.106 0.128,0.137c0.065,0.024 0.09,0.047 0.09,0.089c0,0.04 -0.03,0.072 -0.094,0.072c-0.044,-0 -0.09,-0.018 -0.116,-0.035l-0.022,0.067Z" style="fill:#2563eb;fill-rule:nonzero;"/></g><g transform="matrix(36.8434,0,0,36.8434,692.609,677.875)"><path d="M0.161,-0l0,-0.484l-0.088,0l-0,0.484l0.088,-0Zm-0.044,-0.675c-0.032,0 -0.055,0.024 -0.055,0.055c-0,0.03 0.022,0.054 0.053,0.054c0.035,-0 0.057,-0.024 0.056,-0.054c0,-0.031 -0.021,-0.055 -0.054,-0.055Z" style="fill:#2563eb;fill-rule:nonzero;"/></g><g transform="matrix(36.8434,0,0,36.8434,701.231,677.875)"><path d="M0.039,-0.023c0.034,0.02 0.083,0.034 0.136,0.034c0.115,-0 0.181,-0.061 0.181,-0.146c0,-0.072 -0.043,-0.114 -0.127,-0.146c-0.063,-0.024 -0.092,-0.042 -0.092,-0.082c0,-0.036 0.029,-0.066 0.081,-0.066c0.045,0 0.08,0.016 0.099,0.028l0.022,-0.064c-0.027,-0.016 -0.07,-0.03 -0.119,-0.03c-0.104,0 -0.167,0.064 -0.167,0.142c0,0.058 0.041,0.106 0.128,0.137c0.065,0.024 0.09,0.047 0.09,0.089c0,0.04 -0.03,0.072 -0.094,0.072c-0.044,-0 -0.09,-0.018 -0.116,-0.035l-0.022,0.067Z" style="fill:#2563eb;fill-rule:nonzero;"/></g><g transform="matrix(36.8434,0,0,36.8434,723.632,677.875)"><path d="M0.413,-0.297c0,-0.097 -0.036,-0.198 -0.184,-0.198c-0.061,0 -0.119,0.017 -0.159,0.043l0.02,0.058c0.034,-0.022 0.081,-0.036 0.126,-0.036c0.099,0 0.11,0.072 0.11,0.112l0,0.01c-0.187,-0.001 -0.291,0.063 -0.291,0.18c-0,0.07 0.05,0.139 0.148,0.139c0.069,0 0.121,-0.034 0.148,-0.072l0.003,0l0.007,0.061l0.08,0c-0.006,-0.033 -0.008,-0.074 -0.008,-0.116l0,-0.181Zm-0.085,0.134c0,0.009 -0.002,0.019 -0.005,0.028c-0.014,0.041 -0.054,0.081 -0.117,0.081c-0.045,0 -0.083,-0.027 -0.083,-0.084c-0,-0.094 0.109,-0.111 0.205,-0.109l0,0.084Z" style="fill:#2563eb;fill-rule:nonzero;"/></g><g transform="matrix(36.8434,0,0,36.8434,741.39,677.875)"><path d="M0.073,-0l0.088,-0l0,-0.291c0,-0.015 0.002,-0.03 0.006,-0.041c0.015,-0.049 0.06,-0.09 0.118,-0.09c0.083,-0 0.112,0.065 0.112,0.143l0,0.279l0.088,-0l0,-0.289c0,-0.166 -0.104,-0.206 -0.171,-0.206c-0.08,-0 -0.136,0.045 -0.16,0.091l-0.002,-0l-0.005,-0.08l-0.078,-0c0.003,0.04 0.004,0.081 0.004,0.131l0,0.353Z" style="fill:#2563eb;fill-rule:nonzero;"/></g><g transform="matrix(36.8434,0,0,36.8434,761.838,677.875)"><path d="M0.403,-0.71l0,0.289l-0.002,0c-0.022,-0.039 -0.072,-0.074 -0.146,-0.074c-0.118,0 -0.218,0.099 -0.217,0.26c-0,0.147 0.09,0.246 0.207,0.246c0.079,-0 0.138,-0.041 0.165,-0.095l0.002,-0l0.004,0.084l0.079,-0c-0.003,-0.033 -0.004,-0.082 -0.004,-0.125l-0,-0.585l-0.088,0Zm0,0.507c0,0.014 -0.001,0.026 -0.004,0.038c-0.016,0.066 -0.07,0.105 -0.129,0.105c-0.095,-0 -0.143,-0.081 -0.143,-0.179c0,-0.107 0.054,-0.187 0.145,-0.187c0.066,-0 0.114,0.046 0.127,0.102c0.003,0.011 0.004,0.026 0.004,0.037l0,0.084Z" style="fill:#2563eb;fill-rule:nonzero;"/></g><g transform="matrix(36.8434,0,0,36.8434,535.288,722.087)"><path d="M0.403,-0.71l0,0.289l-0.002,0c-0.022,-0.039 -0.072,-0.074 -0.146,-0.074c-0.118,0 -0.218,0.099 -0.217,0.26c-0,0.147 0.09,0.246 0.207,0.246c0.079,-0 0.138,-0.041 0.165,-0.095l0.002,-0l0.004,0.084l0.079,-0c-0.003,-0.033 -0.004,-0.082 -0.004,-0.125l-0,-0.585l-0.088,0Zm0,0.507c0,0.014 -0.001,0.026 -0.004,0.038c-0.016,0.066 -0.07,0.105 -0.129,0.105c-0.095,-0 -0.143,-0.081 -0.143,-0.179c0,-0.107 0.054,-0.187 0.145,-0.187c0.066,-0 0.114,0.046 0.127,0.102c0.003,0.011 0.004,0.026 0.004,0.037l0,0.084Z" style="fill:#2563eb;fill-rule:nonzero;"/></g><g transform="matrix(36.8434,0,0,36.8434,556.068,722.087)"><path d="M0.462,-0.226c0.001,-0.009 0.003,-0.023 0.003,-0.041c0,-0.089 -0.042,-0.228 -0.2,-0.228c-0.141,0 -0.227,0.115 -0.227,0.261c-0,0.146 0.089,0.245 0.238,0.245c0.077,-0 0.13,-0.017 0.161,-0.031l-0.015,-0.063c-0.033,0.014 -0.071,0.025 -0.134,0.025c-0.088,-0 -0.164,-0.049 -0.166,-0.168l0.34,0Zm-0.339,-0.063c0.007,-0.061 0.046,-0.143 0.135,-0.143c0.099,0 0.123,0.087 0.122,0.143l-0.257,0Z" style="fill:#2563eb;fill-rule:nonzero;"/></g><g transform="matrix(36.8434,0,0,36.8434,574.526,722.087)"><path d="M0.039,-0.023c0.034,0.02 0.083,0.034 0.136,0.034c0.115,-0 0.181,-0.061 0.181,-0.146c0,-0.072 -0.043,-0.114 -0.127,-0.146c-0.063,-0.024 -0.092,-0.042 -0.092,-0.082c0,-0.036 0.029,-0.066 0.081,-0.066c0.045,0 0.08,0.016 0.099,0.028l0.022,-0.064c-0.027,-0.016 -0.07,-0.03 -0.119,-0.03c-0.104,0 -0.167,0.064 -0.167,0.142c0,0.058 0.041,0.106 0.128,0.137c0.065,0.024 0.09,0.047 0.09,0.089c0,0.04 -0.03,0.072 -0.094,0.072c-0.044,-0 -0.09,-0.018 -0.116,-0.035l-0.022,0.067Z" style="fill:#2563eb;fill-rule:nonzero;"/></g><g transform="matrix(36.8434,0,0,36.8434,589.116,722.087)"><path d="M0.403,-0.084c-0.025,0.011 -0.058,0.024 -0.108,0.024c-0.096,0 -0.168,-0.069 -0.168,-0.181c-0,-0.101 0.06,-0.183 0.171,-0.183c0.048,0 0.081,0.011 0.102,0.023l0.02,-0.068c-0.024,-0.012 -0.07,-0.025 -0.122,-0.025c-0.158,0 -0.26,0.108 -0.26,0.257c-0,0.148 0.095,0.248 0.241,0.248c0.065,-0 0.116,-0.017 0.139,-0.029l-0.015,-0.066Z" style="fill:#2563eb;fill-rule:nonzero;"/></g><g transform="matrix(36.8434,0,0,36.8434,605.622,722.087)"><path d="M0.073,-0l0.087,-0l0,-0.258c0,-0.015 0.002,-0.029 0.004,-0.041c0.012,-0.066 0.056,-0.113 0.118,-0.113c0.012,-0 0.021,0.001 0.03,0.003l-0,-0.083c-0.008,-0.002 -0.015,-0.003 -0.025,-0.003c-0.059,0 -0.112,0.041 -0.134,0.106l-0.004,0l-0.003,-0.095l-0.077,0c0.003,0.045 0.004,0.094 0.004,0.151l-0,0.333Z" style="fill:#2563eb;fill-rule:nonzero;"/></g><g transform="matrix(36.8434,0,0,36.8434,617.817,722.087)"><path d="M0.161,-0l0,-0.484l-0.088,0l-0,0.484l0.088,-0Zm-0.044,-0.675c-0.032,0 -0.055,0.024 -0.055,0.055c-0,0.03 0.022,0.054 0.053,0.054c0.035,-0 0.057,-0.024 0.056,-0.054c0,-0.031 -0.021,-0.055 -0.054,-0.055Z" style="fill:#2563eb;fill-rule:nonzero;"/></g><g transform="matrix(36.8434,0,0,36.8434,626.439,722.087)"><path d="M0.073,0.198l0.087,0l0,-0.263l0.002,0c0.029,0.048 0.085,0.076 0.149,0.076c0.114,0 0.22,-0.086 0.22,-0.26c0,-0.147 -0.088,-0.246 -0.205,-0.246c-0.079,0 -0.136,0.035 -0.172,0.094l-0.002,0l-0.004,-0.083l-0.079,0c0.002,0.046 0.004,0.096 0.004,0.158l0,0.524Zm0.087,-0.478c0,-0.012 0.003,-0.025 0.006,-0.036c0.017,-0.066 0.073,-0.109 0.133,-0.109c0.093,0 0.144,0.083 0.144,0.18c-0,0.111 -0.054,0.187 -0.147,0.187c-0.063,0 -0.116,-0.042 -0.132,-0.103c-0.002,-0.011 -0.004,-0.023 -0.004,-0.036l-0,-0.083Z" style="fill:#2563eb;fill-rule:nonzero;"/></g><g transform="matrix(36.8434,0,0,36.8434,647.402,722.087)"><path d="M0.093,-0.573l0,0.089l-0.075,0l0,0.067l0.075,0l0,0.264c0,0.057 0.009,0.1 0.034,0.126c0.021,0.024 0.054,0.038 0.095,0.038c0.034,0 0.061,-0.006 0.078,-0.013l-0.004,-0.066c-0.013,0.004 -0.027,0.006 -0.051,0.006c-0.049,0 -0.066,-0.034 -0.066,-0.094l0,-0.261l0.126,0l0,-0.067l-0.126,0l0,-0.116l-0.086,0.027Z" style="fill:#2563eb;fill-rule:nonzero;"/></g><g transform="matrix(36.8434,0,0,36.8434,659.598,722.087)"><path d="M0.161,-0l0,-0.484l-0.088,0l-0,0.484l0.088,-0Zm-0.044,-0.675c-0.032,0 -0.055,0.024 -0.055,0.055c-0,0.03 0.022,0.054 0.053,0.054c0.035,-0 0.057,-0.024 0.056,-0.054c0,-0.031 -0.021,-0.055 -0.054,-0.055Z" style="fill:#2563eb;fill-rule:nonzero;"/></g><g transform="matrix(36.8434,0,0,36.8434,668.219,722.087)"><path d="M0.013,-0.484l0.184,0.484l0.084,-0l0.19,-0.484l-0.092,0l-0.094,0.272c-0.016,0.044 -0.03,0.084 -0.041,0.124l-0.003,-0c-0.01,-0.04 -0.023,-0.08 -0.039,-0.124l-0.095,-0.272l-0.094,0Z" style="fill:#2563eb;fill-rule:nonzero;"/></g><g transform="matrix(36.8434,0,0,36.8434,685.572,722.087)"><path d="M0.462,-0.226c0.001,-0.009 0.003,-0.023 0.003,-0.041c0,-0.089 -0.042,-0.228 -0.2,-0.228c-0.141,0 -0.227,0.115 -0.227,0.261c-0,0.146 0.089,0.245 0.238,0.245c0.077,-0 0.13,-0.017 0.161,-0.031l-0.015,-0.063c-0.033,0.014 -0.071,0.025 -0.134,0.025c-0.088,-0 -0.164,-0.049 -0.166,-0.168l0.34,0Zm-0.339,-0.063c0.007,-0.061 0.046,-0.143 0.135,-0.143c0.099,0 0.123,0.087 0.122,0.143l-0.257,0Z" style="fill:#2563eb;fill-rule:nonzero;"/></g><g transform="matrix(36.8434,0,0,36.8434,711.842,722.087)"><path d="M0.039,-0.023c0.034,0.02 0.083,0.034 0.136,0.034c0.115,-0 0.181,-0.061 0.181,-0.146c0,-0.072 -0.043,-0.114 -0.127,-0.146c-0.063,-0.024 -0.092,-0.042 -0.092,-0.082c0,-0.036 0.029,-0.066 0.081,-0.066c0.045,0 0.08,0.016 0.099,0.028l0.022,-0.064c-0.027,-0.016 -0.07,-0.03 -0.119,-0.03c-0.104,0 -0.167,0.064 -0.167,0.142c0,0.058 0.041,0.106 0.128,0.137c0.065,0.024 0.09,0.047 0.09,0.089c0,0.04 -0.03,0.072 -0.094,0.072c-0.044,-0 -0.09,-0.018 -0.116,-0.035l-0.022,0.067Z" style="fill:#2563eb;fill-rule:nonzero;"/></g><g transform="matrix(36.8434,0,0,36.8434,726.432,722.087)"><path d="M0.093,-0.573l0,0.089l-0.075,0l0,0.067l0.075,0l0,0.264c0,0.057 0.009,0.1 0.034,0.126c0.021,0.024 0.054,0.038 0.095,0.038c0.034,0 0.061,-0.006 0.078,-0.013l-0.004,-0.066c-0.013,0.004 -0.027,0.006 -0.051,0.006c-0.049,0 -0.066,-0.034 -0.066,-0.094l0,-0.261l0.126,0l0,-0.067l-0.126,0l0,-0.116l-0.086,0.027Z" style="fill:#2563eb;fill-rule:nonzero;"/></g><g transform="matrix(36.8434,0,0,36.8434,738.627,722.087)"><path d="M0.413,-0.297c0,-0.097 -0.036,-0.198 -0.184,-0.198c-0.061,0 -0.119,0.017 -0.159,0.043l0.02,0.058c0.034,-0.022 0.081,-0.036 0.126,-0.036c0.099,0 0.11,0.072 0.11,0.112l0,0.01c-0.187,-0.001 -0.291,0.063 -0.291,0.18c-0,0.07 0.05,0.139 0.148,0.139c0.069,0 0.121,-0.034 0.148,-0.072l0.003,0l0.007,0.061l0.08,0c-0.006,-0.033 -0.008,-0.074 -0.008,-0.116l0,-0.181Zm-0.085,0.134c0,0.009 -0.002,0.019 -0.005,0.028c-0.014,0.041 -0.054,0.081 -0.117,0.081c-0.045,0 -0.083,-0.027 -0.083,-0.084c-0,-0.094 0.109,-0.111 0.205,-0.109l0,0.084Z" style="fill:#2563eb;fill-rule:nonzero;"/></g><g transform="matrix(36.8434,0,0,36.8434,756.238,722.087)"><path d="M0.093,-0.573l0,0.089l-0.075,0l0,0.067l0.075,0l0,0.264c0,0.057 0.009,0.1 0.034,0.126c0.021,0.024 0.054,0.038 0.095,0.038c0.034,0 0.061,-0.006 0.078,-0.013l-0.004,-0.066c-0.013,0.004 -0.027,0.006 -0.051,0.006c-0.049,0 -0.066,-0.034 -0.066,-0.094l0,-0.261l0.126,0l0,-0.067l-0.126,0l0,-0.116l-0.086,0.027Z" style="fill:#2563eb;fill-rule:nonzero;"/></g><g transform="matrix(36.8434,0,0,36.8434,768.433,722.087)"><path d="M0.161,-0l0,-0.484l-0.088,0l-0,0.484l0.088,-0Zm-0.044,-0.675c-0.032,0 -0.055,0.024 -0.055,0.055c-0,0.03 0.022,0.054 0.053,0.054c0.035,-0 0.057,-0.024 0.056,-0.054c0,-0.031 -0.021,-0.055 -0.054,-0.055Z" style="fill:#2563eb;fill-rule:nonzero;"/></g><g transform="matrix(36.8434,0,0,36.8434,777.054,722.087)"><path d="M0.039,-0.023c0.034,0.02 0.083,0.034 0.136,0.034c0.115,-0 0.181,-0.061 0.181,-0.146c0,-0.072 -0.043,-0.114 -0.127,-0.146c-0.063,-0.024 -0.092,-0.042 -0.092,-0.082c0,-0.036 0.029,-0.066 0.081,-0.066c0.045,0 0.08,0.016 0.099,0.028l0.022,-0.064c-0.027,-0.016 -0.07,-0.03 -0.119,-0.03c-0.104,0 -0.167,0.064 -0.167,0.142c0,0.058 0.041,0.106 0.128,0.137c0.065,0.024 0.09,0.047 0.09,0.089c0,0.04 -0.03,0.072 -0.094,0.072c-0.044,-0 -0.09,-0.018 -0.116,-0.035l-0.022,0.067Z" style="fill:#2563eb;fill-rule:nonzero;"/></g><g transform="matrix(36.8434,0,0,36.8434,791.644,722.087)"><path d="M0.093,-0.573l0,0.089l-0.075,0l0,0.067l0.075,0l0,0.264c0,0.057 0.009,0.1 0.034,0.126c0.021,0.024 0.054,0.038 0.095,0.038c0.034,0 0.061,-0.006 0.078,-0.013l-0.004,-0.066c-0.013,0.004 -0.027,0.006 -0.051,0.006c-0.049,0 -0.066,-0.034 -0.066,-0.094l0,-0.261l0.126,0l0,-0.067l-0.126,0l0,-0.116l-0.086,0.027Z" style="fill:#2563eb;fill-rule:nonzero;"/></g><g transform="matrix(36.8434,0,0,36.8434,803.84,722.087)"><path d="M0.161,-0l0,-0.484l-0.088,0l-0,0.484l0.088,-0Zm-0.044,-0.675c-0.032,0 -0.055,0.024 -0.055,0.055c-0,0.03 0.022,0.054 0.053,0.054c0.035,-0 0.057,-0.024 0.056,-0.054c0,-0.031 -0.021,-0.055 -0.054,-0.055Z" style="fill:#2563eb;fill-rule:nonzero;"/></g><g transform="matrix(36.8434,0,0,36.8434,812.461,722.087)"><path d="M0.403,-0.084c-0.025,0.011 -0.058,0.024 -0.108,0.024c-0.096,0 -0.168,-0.069 -0.168,-0.181c-0,-0.101 0.06,-0.183 0.171,-0.183c0.048,0 0.081,0.011 0.102,0.023l0.02,-0.068c-0.024,-0.012 -0.07,-0.025 -0.122,-0.025c-0.158,0 -0.26,0.108 -0.26,0.257c-0,0.148 0.095,0.248 0.241,0.248c0.065,-0 0.116,-0.017 0.139,-0.029l-0.015,-0.066Z" style="fill:#2563eb;fill-rule:nonzero;"/></g><g transform="matrix(36.8434,0,0,36.8434,828.967,722.087)"><path d="M0.039,-0.023c0.034,0.02 0.083,0.034 0.136,0.034c0.115,-0 0.181,-0.061 0.181,-0.146c0,-0.072 -0.043,-0.114 -0.127,-0.146c-0.063,-0.024 -0.092,-0.042 -0.092,-0.082c0,-0.036 0.029,-0.066 0.081,-0.066c0.045,0 0.08,0.016 0.099,0.028l0.022,-0.064c-0.027,-0.016 -0.07,-0.03 -0.119,-0.03c-0.104,0 -0.167,0.064 -0.167,0.142c0,0.058 0.041,0.106 0.128,0.137c0.065,0.024 0.09,0.047 0.09,0.089c0,0.04 -0.03,0.072 -0.094,0.072c-0.044,-0 -0.09,-0.018 -0.116,-0.035l-0.022,0.067Z" style="fill:#2563eb;fill-rule:nonzero;"/></g></g><path d="M3680.91,121.431l-0,105.146c-0,29.015 -23.557,52.572 -52.573,52.572l-542.91,0c-29.016,0 -52.573,-23.557 -52.573,-52.572l-0,-105.146c-0,-29.015 23.557,-52.572 52.573,-52.572l542.91,-0c29.016,-0 52.573,23.557 52.573,52.572Z" style="fill:#2563eb;stroke:#2563eb;stroke-width:1.67px;"/><path d="M3256.8,167.936l-41.292,0l-0,-33.57l43.657,0l-0,-11.505l-57.369,-0l0,106.226l59.733,-0l-0,-11.505l-46.021,-0l-0,-38.298l41.292,-0l0,-11.348Z" style="fill:#fff;fill-rule:nonzero;"/><path d="M3269.88,152.806l25.847,37.352l-27.108,38.929l15.288,-0l11.032,-17.179c2.837,-4.571 5.516,-8.511 8.038,-13.239l0.315,0c2.679,4.571 5.201,8.826 8.196,13.239l11.189,17.179l15.761,-0l-26.793,-39.401l26.005,-36.88l-14.973,-0l-10.717,16.233c-2.521,4.098 -5.043,8.038 -7.565,12.609l-0.473,-0c-2.521,-4.256 -4.885,-8.196 -7.722,-12.451l-10.875,-16.391l-15.445,-0Z" style="fill:#fff;fill-rule:nonzero;"/><path d="M3401.48,215.848c-3.94,1.734 -9.141,3.783 -17.021,3.783c-15.13,-0 -26.478,-10.875 -26.478,-28.527c0,-15.918 9.456,-28.842 26.951,-28.842c7.565,0 12.766,1.734 16.075,3.625l3.152,-10.717c-3.782,-1.891 -11.032,-3.94 -19.227,-3.94c-24.902,-0 -40.978,17.021 -40.978,40.504c0,23.326 14.973,39.087 37.983,39.087c10.244,-0 18.282,-2.68 21.907,-4.571l-2.364,-10.402Z" style="fill:#fff;fill-rule:nonzero;"/><path d="M3480.44,193.468c0.158,-1.418 0.473,-3.625 0.473,-6.462c0,-14.027 -6.619,-35.934 -31.521,-35.934c-22.222,0 -35.776,18.125 -35.776,41.135c-0,23.011 14.027,38.614 37.51,38.614c12.135,-0 20.489,-2.68 25.374,-4.886l-2.364,-9.929c-5.201,2.206 -11.19,3.94 -21.119,3.94c-13.869,-0 -25.847,-7.723 -26.162,-26.478l53.585,0Zm-53.428,-9.929c1.103,-9.614 7.25,-22.538 21.277,-22.538c15.603,0 19.385,13.712 19.228,22.538l-40.505,0Z" style="fill:#fff;fill-rule:nonzero;"/><rect x="3498.09" y="117.187" width="13.869" height="111.9" style="fill:#fff;fill-rule:nonzero;"/><path d="M3680.91,482.427l-0,105.146c-0,29.015 -23.557,52.572 -52.573,52.572l-542.91,0c-29.016,0 -52.573,-23.557 -52.573,-52.572l-0,-105.146c-0,-29.015 23.557,-52.572 52.573,-52.572l542.91,-0c29.016,-0 52.573,23.557 52.573,52.572Z" style="fill:#2563eb;stroke:#2563eb;stroke-width:1.67px;"/><path d="M3132.21,573.535l13.712,-0l0,-42.554c3.152,0.788 6.935,0.946 11.032,0.946c13.397,-0 25.217,-3.94 32.467,-11.663c5.359,-5.516 8.196,-13.081 8.196,-22.695c-0,-9.456 -3.468,-17.179 -9.299,-22.223c-6.304,-5.673 -16.233,-8.825 -29.787,-8.825c-11.033,-0 -19.701,0.945 -26.321,2.048l0,104.966Zm13.712,-95.036c2.364,-0.631 6.935,-1.104 12.924,-1.104c15.13,0 25.059,6.777 25.059,20.804c-0,14.658 -10.087,22.695 -26.635,22.695c-4.571,0 -8.353,-0.315 -11.348,-1.103l0,-41.292Z" style="fill:#fff;fill-rule:nonzero;"/><path d="M3206.13,497.254l28.212,70.292c0.63,1.733 0.945,2.836 0.945,3.625c0,0.788 -0.472,1.891 -1.103,3.309c-3.152,7.092 -7.88,12.451 -11.663,15.446c-4.097,3.467 -8.668,5.673 -12.135,6.777l3.467,11.662c3.467,-0.63 10.244,-2.994 17.021,-8.983c9.457,-8.196 16.234,-21.592 26.163,-47.755l20.804,-54.373l-14.658,-0l-15.13,44.76c-1.891,5.516 -3.467,11.347 -4.885,15.918l-0.316,-0c-1.26,-4.571 -3.152,-10.56 -4.885,-15.603l-16.707,-45.075l-15.13,-0Z" style="fill:#fff;fill-rule:nonzero;"/><path d="M3293.6,483.227l0,14.027l-11.82,-0l-0,10.559l11.82,0l0,41.608c0,8.983 1.419,15.761 5.359,19.858c3.31,3.783 8.511,5.989 14.972,5.989c5.359,0 9.614,-0.945 12.294,-2.049l-0.631,-10.402c-2.049,0.631 -4.255,0.946 -8.038,0.946c-7.722,0 -10.402,-5.359 -10.402,-14.815l0,-41.135l19.859,0l-0,-10.559l-19.859,-0l0,-18.283l-13.554,4.256Z" style="fill:#fff;fill-rule:nonzero;"/><path d="M3342.61,573.535l13.869,-0l-0,-46.021c-0,-2.679 0.157,-4.728 0.945,-6.62c2.522,-7.565 9.614,-13.869 18.598,-13.869c13.081,0 17.652,10.402 17.652,22.695l-0,43.815l13.869,-0l-0,-45.391c-0,-26.32 -16.391,-32.624 -26.635,-32.624c-5.201,-0 -10.087,1.576 -14.185,3.94c-4.255,2.364 -7.722,5.831 -9.929,9.772l-0.315,-0l-0,-47.597l-13.869,-0l-0,111.9Z" style="fill:#fff;fill-rule:nonzero;"/><path d="M3462.39,495.52c-21.119,-0 -37.826,14.972 -37.826,40.505c0,24.113 15.918,39.243 36.565,39.243c18.44,0 37.983,-12.293 37.983,-40.504c-0,-23.326 -14.815,-39.244 -36.722,-39.244Zm-0.316,10.402c16.391,-0 22.853,16.391 22.853,29.315c0,17.178 -9.929,29.629 -23.168,29.629c-13.554,0 -23.168,-12.608 -23.168,-29.314c0,-14.5 7.092,-29.63 23.483,-29.63Z" style="fill:#fff;fill-rule:nonzero;"/><path d="M3516.61,573.535l13.869,-0l0,-45.864c0,-2.364 0.315,-4.728 0.946,-6.461c2.364,-7.723 9.456,-14.185 18.597,-14.185c13.081,0 17.652,10.244 17.652,22.538l-0,43.972l13.869,-0l0,-45.548c0,-26.163 -16.391,-32.467 -26.95,-32.467c-12.609,-0 -21.435,7.092 -25.217,14.342l-0.315,0l-0.788,-12.608l-12.294,-0c0.473,6.304 0.631,12.766 0.631,20.646l-0,55.635Z" style="fill:#fff;fill-rule:nonzero;"/><path d="M3680.91,843.424l-0,105.145c-0,29.016 -23.557,52.573 -52.573,52.573l-542.91,-0c-29.016,-0 -52.573,-23.557 -52.573,-52.573l-0,-105.145c-0,-29.016 23.557,-52.573 52.573,-52.573l542.91,-0c29.016,-0 52.573,23.557 52.573,52.573Z" style="fill:#2563eb;stroke:#2563eb;stroke-width:1.67px;"/><path d="M3235.36,912.86c0,20.804 -7.25,26.32 -19.543,26.32c-4.57,0 -8.668,-0.945 -11.505,-2.049l-2.049,11.19c3.467,1.419 9.614,2.522 14.657,2.522c18.283,-0 32.152,-8.668 32.152,-36.88l-0,-71.08l-13.712,0l0,69.977Z" style="fill:#fff;fill-rule:nonzero;"/><path d="M3326.77,915.697l11.348,33.412l14.657,0l-36.249,-106.226l-16.549,0l-36.091,106.226l14.184,0l11.033,-33.412l37.667,-0Zm-34.831,-10.717l10.402,-30.733c2.049,-6.462 3.783,-12.924 5.359,-19.228l0.315,-0c1.576,6.147 3.152,12.451 5.516,19.385l10.402,30.576l-31.994,-0Z" style="fill:#fff;fill-rule:nonzero;"/><path d="M3363.02,943.908c5.674,3.783 16.864,6.935 27.109,6.935c25.059,-0 37.194,-14.342 37.194,-30.733c0,-15.603 -9.141,-24.271 -27.108,-31.206c-14.657,-5.674 -21.119,-10.559 -21.119,-20.489c0,-7.249 5.516,-15.918 20.016,-15.918c9.614,0 16.706,3.152 20.174,5.044l3.782,-11.19c-4.728,-2.68 -12.608,-5.201 -23.483,-5.201c-20.646,-0 -34.358,12.293 -34.358,28.841c-0,14.973 10.717,23.956 28.054,30.103c14.342,5.516 20.016,11.19 20.016,21.119c-0,10.717 -8.196,18.125 -22.223,18.125c-9.456,-0 -18.44,-3.152 -24.586,-6.935l-3.468,11.505Z" style="fill:#fff;fill-rule:nonzero;"/><path d="M3446.08,949.109l13.712,0l0,-42.553c3.152,0.788 6.935,0.945 11.033,0.945c13.396,0 25.216,-3.94 32.466,-11.662c5.359,-5.516 8.196,-13.082 8.196,-22.695c-0,-9.457 -3.468,-17.179 -9.299,-22.223c-6.304,-5.674 -16.233,-8.826 -29.787,-8.826c-11.033,0 -19.701,0.946 -26.321,2.049l0,104.965Zm13.712,-95.036c2.364,-0.63 6.935,-1.103 12.924,-1.103c15.13,0 25.059,6.777 25.059,20.804c0,14.657 -10.087,22.695 -26.635,22.695c-4.571,0 -8.353,-0.315 -11.348,-1.103l0,-41.293Z" style="fill:#fff;fill-rule:nonzero;"/><path d="M3680.91,1204.42l-0,105.145c-0,29.016 -23.557,52.573 -52.573,52.573l-542.91,-0c-29.016,-0 -52.573,-23.557 -52.573,-52.573l-0,-105.145c-0,-29.016 23.557,-52.573 52.573,-52.573l542.91,0c29.016,0 52.573,23.557 52.573,52.573Z" style="fill:#2563eb;stroke:#2563eb;stroke-width:1.67px;"/><path d="M3322.28,1310.5l13.712,-0l0,-46.021l12.924,-0c12.451,0.473 18.124,5.989 21.276,20.646c2.995,13.239 5.359,22.222 7.093,25.375l14.184,-0c-2.206,-4.098 -4.728,-14.343 -8.195,-29.157c-2.522,-11.033 -7.408,-18.598 -15.603,-21.435l-0,-0.473c11.19,-3.782 20.016,-13.081 20.016,-27.108c-0,-8.195 -2.995,-15.445 -8.353,-20.173c-6.62,-5.989 -16.076,-8.669 -30.733,-8.669c-9.457,0 -19.386,0.789 -26.321,2.207l0,104.808Zm13.712,-95.194c2.207,-0.631 6.935,-1.261 13.554,-1.261c14.5,0.158 24.429,6.147 24.429,19.858c0,12.136 -9.299,20.174 -23.956,20.174l-14.027,-0l0,-38.771Z" style="fill:#fff;fill-rule:nonzero;"/><path d="M3680.91,1565.42l-0,105.145c-0,29.016 -23.557,52.573 -52.573,52.573l-542.91,0c-29.016,0 -52.573,-23.557 -52.573,-52.573l-0,-105.145c-0,-29.016 23.557,-52.573 52.573,-52.573l542.91,0c29.016,0 52.573,23.557 52.573,52.573Z" style="fill:#2563eb;stroke:#2563eb;stroke-width:1.67px;"/><path d="M3070.11,1671.1l13.869,-0l0,-94.563l32.467,-0l-0,-11.663l-78.645,-0l-0,11.663l32.309,-0l-0,94.563Z" style="fill:#fff;fill-rule:nonzero;"/><path d="M3128.27,1671.1l13.712,-0l-0,-46.021l12.924,-0c12.45,0.473 18.124,5.989 21.276,20.646c2.995,13.239 5.359,22.223 7.093,25.375l14.184,-0c-2.206,-4.098 -4.728,-14.342 -8.195,-29.157c-2.522,-11.033 -7.408,-18.598 -15.603,-21.435l-0,-0.472c11.19,-3.783 20.016,-13.082 20.016,-27.109c-0,-8.195 -2.995,-15.445 -8.354,-20.173c-6.619,-5.989 -16.075,-8.668 -30.733,-8.668c-9.456,-0 -19.385,0.788 -26.32,2.206l0,104.808Zm13.712,-95.194c2.206,-0.63 6.935,-1.261 13.554,-1.261c14.5,0.158 24.429,6.147 24.429,19.859c-0,12.135 -9.299,20.173 -23.956,20.173l-14.027,-0l-0,-38.771Z" style="fill:#fff;fill-rule:nonzero;"/><path d="M3268.7,1637.69l11.347,33.413l14.658,-0l-36.25,-106.226l-16.548,-0l-36.092,106.226l14.185,-0l11.032,-33.413l37.668,0Zm-34.831,-10.717l10.402,-30.733c2.049,-6.462 3.782,-12.923 5.358,-19.228l0.316,0c1.576,6.147 3.152,12.451 5.516,19.386l10.402,30.575l-31.994,0Z" style="fill:#fff;fill-rule:nonzero;"/><rect x="3310.3" y="1564.88" width="13.712" height="106.226" style="fill:#fff;fill-rule:nonzero;"/><path d="M3360.9,1671.1l-0,-45.391c-0,-17.651 -0.315,-30.417 -1.103,-43.814l0.472,-0.158c5.359,11.506 12.451,23.641 19.859,35.462l33.727,53.901l13.869,-0l0,-106.226l-12.923,-0l-0,44.444c-0,16.549 0.315,29.473 1.576,43.657l-0.315,0.158c-5.044,-10.875 -11.19,-22.065 -19.071,-34.516l-34.042,-53.743l-14.973,-0l0,106.226l12.924,-0Z" style="fill:#fff;fill-rule:nonzero;"/><path d="M3446.32,1665.9c5.674,3.782 16.864,6.934 27.108,6.934c25.059,0 37.195,-14.342 37.195,-30.733c-0,-15.603 -9.141,-24.271 -27.108,-31.206c-14.658,-5.673 -21.119,-10.559 -21.119,-20.488c-0,-7.25 5.516,-15.918 20.015,-15.918c9.614,-0 16.707,3.152 20.174,5.043l3.783,-11.19c-4.729,-2.679 -12.609,-5.201 -23.484,-5.201c-20.646,0 -34.358,12.293 -34.358,28.842c0,14.972 10.718,23.956 28.054,30.102c14.342,5.517 20.016,11.19 20.016,21.12c-0,10.717 -8.195,18.124 -22.222,18.124c-9.457,0 -18.44,-3.152 -24.587,-6.934l-3.467,11.505Z" style="fill:#fff;fill-rule:nonzero;"/><path d="M3584.38,1609.95l-41.292,-0l-0,-33.57l43.656,-0l0,-11.505l-57.368,-0l-0,106.226l59.732,-0l0,-11.505l-46.02,-0l-0,-38.299l41.292,0l0,-11.347Z" style="fill:#fff;fill-rule:nonzero;"/><path d="M3629.61,1671.1l13.869,-0l0,-94.563l32.467,-0l-0,-11.663l-78.645,-0l-0,11.663l32.309,-0l-0,94.563Z" style="fill:#fff;fill-rule:nonzero;"/><path d="M1334.72,901.885c435.256,0.446 440.03,-0 440.03,-0" style="fill:#2563eb;stroke:#2563eb;stroke-width:6.67px;"/><path d="M1791.3,902.083l-93.074,-46.537l-0,93.074l93.074,-46.537Z" style="fill:#2563eb;stroke:#2563eb;stroke-width:1.67px;"/><path d="M2443.5,901.885c431.156,-0.912 435.886,-0 435.886,-0" style="fill:#2563eb;stroke:#2563eb;stroke-width:6.67px;"/><path d="M2879.39,176.953l141.216,-0" style="fill:#2563eb;stroke:#2563eb;stroke-width:6.67px;"/><path d="M2879.78,539.811l141.216,-0" style="fill:#2563eb;stroke:#2563eb;stroke-width:6.67px;"/><path d="M2879.78,902.23l141.216,-0" style="fill:#2563eb;stroke:#2563eb;stroke-width:6.67px;"/><path d="M2879.78,1266.85l141.216,-0" style="fill:#2563eb;stroke:#2563eb;stroke-width:6.67px;"/><path d="M2879.39,1641.79l141.216,0" style="fill:#2563eb;stroke:#2563eb;stroke-width:6.67px;"/><path d="M2879.39,1171.67c0.446,-983.92 -0,-994.713 -0,-994.713" style="fill:#2563eb;stroke:#2563eb;stroke-width:6.67px;"/><path d="M2879.59,1640.6c0.447,-463.85 0,-468.938 0,-468.938" style="fill:#2563eb;stroke:#2563eb;stroke-width:6.67px;"/><path d="M3032.24,176.953l-93.074,-46.537l-0,93.074l93.074,-46.537Z" style="fill:#2563eb;stroke:#2563eb;stroke-width:1.67px;"/><path d="M3032.24,539.811l-93.074,-46.537l-0,93.074l93.074,-46.537Z" style="fill:#2563eb;stroke:#000;stroke-width:1.67px;"/><path d="M3032.24,539.811l-93.074,-46.537l-0,93.074l93.074,-46.537Z" style="fill:#2563eb;stroke:#2563eb;stroke-width:1.67px;"/><path d="M3032.24,902.209l-93.074,-46.537l-0,93.074l93.074,-46.537Z" style="fill:#2563eb;stroke:#2563eb;stroke-width:1.67px;"/><path d="M3032.24,1267.35l-93.074,-46.537l-0,93.074l93.074,-46.537Z" style="fill:#2563eb;stroke:#2563eb;stroke-width:1.67px;"/><path d="M3032.24,1641.89l-93.074,-46.537l-0,93.074l93.074,-46.537Z" style="fill:#2563eb;stroke:#2563eb;stroke-width:1.67px;"/><rect x="0" y="0" width="3778.8" height="1962.32" style="fill:none;"/></g></g></svg>